<svg width="25" height="25" viewBox="0 0 25 25" fill="none" xmlns="http://www.w3.org/2000/svg">
<path d="M12.2734 2.48682C6.77344 2.48682 2.27344 6.97682 2.27344 12.5068C2.27344 17.5068 5.93344 21.6568 10.7134 22.4068V15.4068H8.17344V12.5068H10.7134V10.2968C10.7134 7.78682 12.2034 6.40682 14.4934 6.40682C15.5834 6.40682 16.7234 6.59682 16.7234 6.59682V9.06682H15.4634C14.2234 9.06682 13.8334 9.83682 13.8334 10.6268V12.5068H16.6134L16.1634 15.4068H13.8334V22.4068C16.1899 22.0347 18.3356 20.8323 19.8834 19.0169C21.4311 17.2014 22.2788 14.8925 22.2734 12.5068C22.2734 6.97682 17.7734 2.48682 12.2734 2.48682Z" fill="white"/>
</svg>
