<svg width="25" height="25" viewBox="0 0 25 25" fill="none" xmlns="http://www.w3.org/2000/svg">
<path d="M8.07344 2.44678H16.4734C19.6734 2.44678 22.2734 5.04678 22.2734 8.24678V16.6468C22.2734 18.185 21.6624 19.6603 20.5747 20.748C19.4869 21.8357 18.0117 22.4468 16.4734 22.4468H8.07344C4.87344 22.4468 2.27344 19.8468 2.27344 16.6468V8.24678C2.27344 6.70852 2.88451 5.23327 3.97222 4.14556C5.05993 3.05785 6.53518 2.44678 8.07344 2.44678ZM7.87344 4.44678C6.91866 4.44678 6.00298 4.82606 5.32785 5.50119C4.65272 6.17632 4.27344 7.092 4.27344 8.04678V16.8468C4.27344 18.8368 5.88344 20.4468 7.87344 20.4468H16.6734C17.6282 20.4468 18.5439 20.0675 19.219 19.3924C19.8942 18.7172 20.2734 17.8016 20.2734 16.8468V8.04678C20.2734 6.05678 18.6634 4.44678 16.6734 4.44678H7.87344ZM17.5234 5.94678C17.855 5.94678 18.1729 6.07847 18.4073 6.31289C18.6417 6.54731 18.7734 6.86526 18.7734 7.19678C18.7734 7.5283 18.6417 7.84624 18.4073 8.08066C18.1729 8.31508 17.855 8.44678 17.5234 8.44678C17.1919 8.44678 16.874 8.31508 16.6396 8.08066C16.4051 7.84624 16.2734 7.5283 16.2734 7.19678C16.2734 6.86526 16.4051 6.54731 16.6396 6.31289C16.874 6.07847 17.1919 5.94678 17.5234 5.94678ZM12.2734 7.44678C13.5995 7.44678 14.8713 7.97356 15.809 8.91124C16.7467 9.84893 17.2734 11.1207 17.2734 12.4468C17.2734 13.7729 16.7467 15.0446 15.809 15.9823C14.8713 16.92 13.5995 17.4468 12.2734 17.4468C10.9474 17.4468 9.67559 16.92 8.7379 15.9823C7.80022 15.0446 7.27344 13.7729 7.27344 12.4468C7.27344 11.1207 7.80022 9.84893 8.7379 8.91124C9.67559 7.97356 10.9474 7.44678 12.2734 7.44678ZM12.2734 9.44678C11.4778 9.44678 10.7147 9.76285 10.1521 10.3255C9.58951 10.8881 9.27344 11.6511 9.27344 12.4468C9.27344 13.2424 9.58951 14.0055 10.1521 14.5681C10.7147 15.1307 11.4778 15.4468 12.2734 15.4468C13.0691 15.4468 13.8321 15.1307 14.3948 14.5681C14.9574 14.0055 15.2734 13.2424 15.2734 12.4468C15.2734 11.6511 14.9574 10.8881 14.3948 10.3255C13.8321 9.76285 13.0691 9.44678 12.2734 9.44678Z" fill="white"/>
</svg>
