<svg width="25" height="25" viewBox="0 0 25 25" fill="none" xmlns="http://www.w3.org/2000/svg">
<path d="M12.2734 6.94678C12.9365 6.94678 13.5724 7.21017 14.0412 7.67901C14.51 8.14785 14.7734 8.78374 14.7734 9.44678C14.7734 9.77508 14.7088 10.1002 14.5831 10.4035C14.4575 10.7068 14.2734 10.9824 14.0412 11.2145C13.8091 11.4467 13.5335 11.6308 13.2301 11.7565C12.9268 11.8821 12.6017 11.9468 12.2734 11.9468C11.6104 11.9468 10.9745 11.6834 10.5057 11.2145C10.0368 10.7457 9.77344 10.1098 9.77344 9.44678C9.77344 8.78374 10.0368 8.14785 10.5057 7.67901C10.9745 7.21017 11.6104 6.94678 12.2734 6.94678ZM12.2734 2.44678C14.13 2.44678 15.9104 3.18428 17.2232 4.49703C18.5359 5.80978 19.2734 7.59026 19.2734 9.44678C19.2734 14.6968 12.2734 22.4468 12.2734 22.4468C12.2734 22.4468 5.27344 14.6968 5.27344 9.44678C5.27344 7.59026 6.01094 5.80978 7.32369 4.49703C8.63644 3.18428 10.4169 2.44678 12.2734 2.44678ZM12.2734 4.44678C10.9474 4.44678 9.67559 4.97356 8.7379 5.91124C7.80022 6.84893 7.27344 8.12069 7.27344 9.44678C7.27344 10.4468 7.27344 12.4468 12.2734 19.1568C17.2734 12.4468 17.2734 10.4468 17.2734 9.44678C17.2734 8.12069 16.7467 6.84893 15.809 5.91124C14.8713 4.97356 13.5995 4.44678 12.2734 4.44678Z" fill="black"/>
</svg>
