<svg width="25" height="25" viewBox="0 0 25 25" fill="none" xmlns="http://www.w3.org/2000/svg">
<path d="M12.2734 4.44678C13.3343 4.44678 14.3517 4.8682 15.1019 5.61835C15.852 6.3685 16.2734 7.38591 16.2734 8.44678C16.2734 9.50764 15.852 10.5251 15.1019 11.2752C14.3517 12.0254 13.3343 12.4468 12.2734 12.4468C11.2126 12.4468 10.1952 12.0254 9.44501 11.2752C8.69486 10.5251 8.27344 9.50764 8.27344 8.44678C8.27344 7.38591 8.69486 6.3685 9.44501 5.61835C10.1952 4.8682 11.2126 4.44678 12.2734 4.44678ZM12.2734 6.44678C11.743 6.44678 11.2343 6.65749 10.8592 7.03256C10.4842 7.40764 10.2734 7.91634 10.2734 8.44678C10.2734 8.97721 10.4842 9.48592 10.8592 9.86099C11.2343 10.2361 11.743 10.4468 12.2734 10.4468C12.8039 10.4468 13.3126 10.2361 13.6877 9.86099C14.0627 9.48592 14.2734 8.97721 14.2734 8.44678C14.2734 7.91634 14.0627 7.40764 13.6877 7.03256C13.3126 6.65749 12.8039 6.44678 12.2734 6.44678ZM12.2734 13.4468C14.9434 13.4468 20.2734 14.7768 20.2734 17.4468V20.4468H4.27344V17.4468C4.27344 14.7768 9.60344 13.4468 12.2734 13.4468ZM12.2734 15.3468C9.30344 15.3468 6.17344 16.8068 6.17344 17.4468V18.5468H18.3734V17.4468C18.3734 16.8068 15.2434 15.3468 12.2734 15.3468Z" fill="black"/>
</svg>
