<svg width="25" height="25" viewBox="0 0 25 25" fill="none" xmlns="http://www.w3.org/2000/svg">
<path d="M22.7335 6.44678C21.9635 6.79678 21.1335 7.02678 20.2735 7.13678C21.1535 6.60678 21.8335 5.76678 22.1535 4.75678C21.3235 5.25678 20.4035 5.60678 19.4335 5.80678C18.6435 4.94678 17.5335 4.44678 16.2735 4.44678C13.9235 4.44678 12.0035 6.36678 12.0035 8.73678C12.0035 9.07678 12.0435 9.40678 12.1135 9.71678C8.55348 9.53678 5.38348 7.82678 3.27348 5.23678C2.90348 5.86678 2.69348 6.60678 2.69348 7.38678C2.69348 8.87678 3.44348 10.1968 4.60348 10.9468C3.89348 10.9468 3.23348 10.7468 2.65348 10.4468C2.65348 10.4468 2.65348 10.4468 2.65348 10.4768C2.65348 12.5568 4.13348 14.2968 6.09348 14.6868C5.73348 14.7868 5.35348 14.8368 4.96348 14.8368C4.69348 14.8368 4.42348 14.8068 4.16348 14.7568C4.70348 16.4468 6.27348 17.7068 8.16348 17.7368C6.70348 18.8968 4.85348 19.5768 2.83348 19.5768C2.49348 19.5768 2.15348 19.5568 1.81348 19.5168C3.71348 20.7368 5.97348 21.4468 8.39348 21.4468C16.2735 21.4468 20.6035 14.9068 20.6035 9.23678C20.6035 9.04678 20.6035 8.86678 20.5935 8.67678C21.4335 8.07678 22.1535 7.31678 22.7335 6.44678Z" fill="white"/>
</svg>
