<svg width="25" height="25" viewBox="0 0 25 25" fill="none" xmlns="http://www.w3.org/2000/svg">
<path d="M12.3132 2.44678C6.85324 2.44678 2.40324 6.89678 2.40324 12.3568C2.40324 14.1068 2.86324 15.8068 3.72324 17.3068L2.32324 22.4468L7.57324 21.0668C9.02324 21.8568 10.6532 22.2768 12.3132 22.2768C17.7732 22.2768 22.2232 17.8268 22.2232 12.3668C22.2232 9.71678 21.1932 7.22678 19.3232 5.35678C17.4532 3.47678 14.9632 2.44678 12.3132 2.44678ZM12.3232 4.11678C14.5232 4.11678 16.5832 4.97678 18.1432 6.53678C19.6932 8.09678 20.5532 10.1668 20.5532 12.3668C20.5532 16.9068 16.8532 20.5968 12.3132 20.5968C10.8332 20.5968 9.38324 20.2068 8.12324 19.4468L7.82324 19.2768L4.70324 20.0968L5.53324 17.0568L5.33324 16.7368C4.51324 15.4468 4.07324 13.9168 4.07324 12.3568C4.08324 7.81678 7.77324 4.11678 12.3232 4.11678ZM8.80324 7.77678C8.64324 7.77678 8.37324 7.83678 8.14324 8.08678C7.92324 8.33678 7.27324 8.94678 7.27324 10.1568C7.27324 11.3768 8.16324 12.5468 8.27324 12.7168C8.41324 12.8868 10.0332 15.3868 12.5232 16.4468C13.1132 16.7168 13.5732 16.8668 13.9332 16.9768C14.5232 17.1668 15.0632 17.1368 15.4932 17.0768C15.9732 17.0068 16.9532 16.4768 17.1632 15.8968C17.3732 15.3168 17.3732 14.8268 17.3132 14.7168C17.2432 14.6168 17.0832 14.5568 16.8332 14.4468C16.5832 14.3068 15.3632 13.7068 15.1432 13.6268C14.9132 13.5468 14.7732 13.5068 14.5832 13.7468C14.4232 13.9968 13.9432 14.5568 13.8032 14.7168C13.6532 14.8868 13.5132 14.9068 13.2732 14.7868C13.0132 14.6568 12.2132 14.3968 11.2732 13.5568C10.5332 12.8968 10.0432 12.0868 9.89324 11.8368C9.77324 11.5968 9.88324 11.4468 10.0032 11.3368C10.1132 11.2268 10.2732 11.0468 10.3732 10.8968C10.5032 10.7568 10.5432 10.6468 10.6232 10.4868C10.7032 10.3168 10.6632 10.1768 10.6032 10.0568C10.5432 9.94678 10.0432 8.70678 9.83324 8.21678C9.63324 7.73678 9.43324 7.79678 9.27324 7.78678C9.13324 7.78678 8.97324 7.77678 8.80324 7.77678Z" fill="black"/>
</svg>
